/* XPM */
static char *result[] = {
/* columns rows colors chars-per-pixel */
"64 64 241 2 ",
"   c #15100C",
".  c #342D27",
"X  c #2A2019",
"o  c #483D32",
"O  c #514638",
"+  c #65563C",
"@  c #675948",
"#  c #786A54",
"$  c #7B6F65",
"%  c #5A504B",
"&  c #9D010B",
"*  c #9C0B0E",
"=  c #950B0E",
"-  c #9C0A12",
";  c #8E1613",
":  c #9A1616",
">  c #A3010B",
",  c #AB020B",
"<  c #A60C0D",
"1  c #B4010C",
"2  c #B8020E",
"3  c #A7100E",
"4  c #A20B15",
"5  c #A60713",
"6  c #B30211",
"7  c #BD0212",
"8  c #B80C19",
"9  c #A31513",
"0  c #A4141C",
"q  c #A91717",
"w  c #B8101C",
"e  c #9A2419",
"r  c #8E2E1B",
"t  c #A02018",
"y  c #A61C23",
"u  c #AB1B23",
"i  c #B71822",
"p  c #953124",
"a  c #A62429",
"s  c #AA252A",
"d  c #AA292E",
"f  c #A62228",
"g  c #B9232A",
"h  c #AC2E32",
"j  c #A52C32",
"k  c #B72C32",
"l  c #AD3136",
"z  c #AE3439",
"x  c #A7363B",
"c  c #B43236",
"v  c #B23439",
"b  c #BB3339",
"n  c #B3393D",
"m  c #BB3338",
"M  c #9B1C22",
"N  c #C30414",
"B  c #CC0C1B",
"V  c #C70918",
"C  c #CD101E",
"Z  c #C81923",
"A  c #DB1A26",
"S  c #D61925",
"D  c #E01F2A",
"F  c #C8252D",
"G  c #CC2D34",
"H  c #C42D34",
"J  c #D32C34",
"K  c #DC2B34",
"L  c #DE2730",
"P  c #C33137",
"I  c #CC343A",
"U  c #C63239",
"Y  c #D3333A",
"T  c #DA343B",
"R  c #D8232D",
"E  c #E3232D",
"W  c #EB242E",
"Q  c #E42B34",
"!  c #EB2B35",
"~  c #E72932",
"^  c #F42A34",
"/  c #F42C36",
"(  c #E7333C",
")  c #F3333C",
"_  c #FA333C",
"`  c #964729",
"'  c #8F532D",
"]  c #976938",
"[  c #97723D",
"{  c #896437",
"}  c #B43E42",
"|  c #AF3E42",
" . c #C73C44",
".. c #DA3C44",
"X. c #E73C44",
"o. c #F53B43",
"O. c #FA3D45",
"+. c #F43842",
"@. c #B6454A",
"#. c #B84D52",
"$. c #B95559",
"%. c #AE4E53",
"&. c #9C7A42",
"*. c #877552",
"=. c #A37D45",
"-. c #AC6B48",
";. c #BE5F62",
":. c #8B7D69",
">. c #AE6D73",
",. c #D6444B",
"<. c #C8545B",
"1. c #D04A51",
"2. c #E9424A",
"3. c #F4444C",
"4. c #FA444B",
"5. c #FB484F",
"6. c #F7444B",
"7. c #F54B52",
"8. c #FC4D54",
"9. c #FA4750",
"0. c #FE5057",
"q. c #FE545A",
"w. c #FF595E",
"e. c #F4535A",
"r. c #EC4E56",
"t. c #CF5A61",
"y. c #FE5D62",
"u. c #F35D64",
"i. c #E65B66",
"p. c #CC6970",
"a. c #FC6369",
"s. c #EE6D75",
"d. c #A8864B",
"f. c #AE914E",
"g. c #B2964E",
"h. c #AC8E54",
"j. c #AF9153",
"k. c #B39454",
"l. c #B69A52",
"z. c #B59758",
"x. c #B69959",
"c. c #BA9C5C",
"v. c #B99E55",
"b. c #B08F52",
"n. c #BEA35B",
"m. c #BCA257",
"M. c #98896D",
"N. c #B59C66",
"B. c #BEA160",
"V. c #9F814C",
"C. c #C1A65E",
"Z. c #C2A463",
"A. c #C4AA65",
"S. c #CBAD6B",
"D. c #C5AB6A",
"F. c #CBB16D",
"G. c #CCB574",
"H. c #CFB779",
"J. c #D2B572",
"K. c #DABD7A",
"L. c #D3B979",
"P. c #C9AF78",
"I. c #C68E68",
"U. c #DDC17E",
"Y. c #AE7B82",
"T. c #D47882",
"R. c #F37C83",
"E. c #AA8E94",
"W. c #B6A78D",
"Q. c #9E9BA4",
"!. c #9EABB5",
"~. c #9DA4AD",
"^. c #A5B2BB",
"/. c #B1B0B3",
"(. c #9B9089",
"). c #C68C97",
"_. c #CD8B95",
"`. c #FD868B",
"'. c #FA979C",
"]. c #ED8E96",
"[. c #CFBA87",
"{. c #C898A2",
"}. c #D39AA5",
"|. c #D1ABB0",
" X c #FAA6AB",
".X c #EEAEB5",
"XX c #E1AF89",
"oX c #DDC387",
"OX c #E2C583",
"+X c #EACD8C",
"@X c #E4C989",
"#X c #EDD293",
"$X c #E8D39B",
"%X c #F1D596",
"&X c #F5DA9B",
"*X c #F8DD9E",
"=X c #F2D798",
"-X c #E9CE91",
";X c #FADFA1",
":X c #E5D3A0",
">X c #FBE2A4",
",X c #FCE6A9",
"<X c #FDEAAD",
"1X c #F4E2A8",
"2X c #FEEDB3",
"3X c #FFF1B7",
"4X c #CBC3B8",
"5X c #A9B8C0",
"6X c #F6BEC2",
"7X c #CEBAC4",
"8X c #BECBD4",
"9X c #BBD5E6",
"0X c #C1CCD7",
"qX c #C4D3DD",
"wX c #CAD4DE",
"eX c #D6CAD1",
"rX c #EECCD0",
"tX c #C9D7E1",
"yX c #CCDBE5",
"uX c #CFDEE8",
"iX c #C5D8E4",
"pX c #D2DFE8",
"aX c #D1DCE6",
"sX c #CAE2EC",
"dX c #D4E2EC",
"fX c #D9E5EE",
"gX c #D9E7F0",
"hX c #DCEBF4",
"jX c #D6E8F1",
"kX c #E1EEF6",
"lX c #E2EFF8",
"zX c #E5F2F9",
"xX c #EAF6FB",
"cX c #EDF9FC",
"vX c #E8F3F7",
"bX c #F4FCFD",
"nX c #FAFEFF",
"mX c #F7F4F5",
"MX c #F1E7EC",
"NX c #EBE1E0",
"BX c None",
/* pixels */
"BXBXBXBXBXBXBXBXBXBXBXBXBXBXBXBXBXBXBXBXBXBXBXBXBXBXBXy.y.q.0.8.8.8.8.8.0.BXBXBXBXBXBXBXBXBXBXBXBXBXBXBXBXBXBXBXBXBXBXBXBXBXBXBX",
"BXBXBXBXBXBXBXBXBXBXBXBXBXBXBXBXBXBXBXBXBXBXBXy.y.q.8.8.5.4.5.5.5.4.O.4.O.4.4.4.5.BXBXBXBXBXBXBXBXBXBXBXBXBXBXBXBXBXBXBXBXBXBXBX",
"BXBXBXBXBXBXBXBXBXBXBXBXBXBXBXBXBXBXBXBXa.y.q.8.8.8.a.R.'..X6X6X6X.X X'.s.q.O._ O.O.6.9.BXBXBXBXBXBXBXBXBXBXBXBXBXBXBXBXBXBXBXBX",
"BXBXBXBXBXBXBXBXBXBXBXBXBXBXBXBXBXBXa.y.w.8.8.y.`.6XMXmXbXbXbXbXbXcXcXcXmXNX.XR.9._ +.o.O.7.BXBXBXBXBXBXBXBXBXBXBXBXBXBXBXBXBXBX",
"BXBXBXBXBXBXBXBXBXBXBXBXBXBXBXBXBXy.w.0.8.y.'.NXnXnXnXbXbXbXcXbXcXbXcXcXcXcXxXzXrX].3./ _ _ 3.BXBXBXBXBXBXBXBXBXBXBXBXBXBXBXBXBX",
"BXBXBXBXBXBXBXBXBXBXBXBXBXBXBXa.y.q.8.q.`.rXnXnXnXnXbXbXbXbXbXbXbXcXcXcXcXxXzXxXxXhXrXs._ / ) o.3.BXBXBXBXBXBXBXBXBXBXBXBXBXBXBX",
"BXBXBXBXBXBXBXBXBXBXBXBXBXBXa.w.q.8.y. XmXnXnXnXbXnXbXbXbXbXbXbXbXcXcXcXcXxXxXzXzXzXzXgX].o./ / +.2.BXBXBXBXBXBXBXBXBXBXBXBXBXBX",
"BXBXBXBXBXBXBXBXBXBXBXBXBXy.q.0.0.y..XnXnXnXnXnXnXnXnXnXnXbXbXbXcXbXcXcXcXcXcXxXxXzXhXhXhX.XO.^ / ( 2.BXBXBXBXBXBXBXBXBXBXBXBXBX",
"BXBXBXBXBXBXBXBXBXBXBXBXy.q.8.q.w..XnXnXnXnXnXnXnXnXnXnXnXbXbXbXbXbXcXcXcXcXxXxXzXzXkXhXkXhX|.+.^ ^ ( 2.BXBXBXBXBXBXBXBXBXBXBXBX",
"BXBXBXBXBXBXBXBXBXBXBXu.q.0.8.q. XnXnXnXnXnXnXnXnXnXbXbXnXnXbXnXbXbXbXcXcXxXxXxXzXzXzXkXhXhXhX].^ ^ ! ( 2.BXBXBXBXBXBXBXBXBXBXBX",
"BXBXBXBXBXBXBXBXBXBXa.q.8.0.q.`.mXnXnXnXnXnXnXnXnXnXnXnXbXnXbXbXbXbXcXcXcXxXxXzXzXzXkXkXhXhXjXdXu.^ ^ ! ( ,.BXBXBXBXBXBXBXBXBXBX",
"BXBXBXBXBXBXBXBXBXy.e.0.q.8.y.rXnXnXnXnXnXnXnXnXnXnXnXnXnXbXnXbXbXbXmXcXcXcXxXvXzXzXzXkXhXhXgXjX|.) ^ ! ( 2.1.BXBXBXBXBXBXBXBXBX",
"BXBXBXBXBXBXBXBXa.e.0.0.0.q.`.mXnXnXnXnXnXnXnXnXnXnXnXnXbXnXbXbXbXbXbXcXcXcXxXzXzXzXzXhXhXjXjXjXfXs.W ^ ! ( ,.t.BXBXBXBXBXBXBXBX",
"BXBXBXBXBXBXBXa.e.0.0.0.q.y.rXnXnXnXnXnXnXnXnXnXnXnXnXnXnXnXbXbXbXcXcXcXcXxXxXvXzXlXhXzXhXhXjXjXjX|.^ ^ ! ( T ,.<.BXBXBXBXBXBXBX",
"BXBXBXBXBXBX`.e.e.0.0.q.w.a.MXmXnXnXnXnXnXnXnXnXnXnXnXnXbXbXnXbXbXcXcXcXxXxXxXzXlXlXhXhXhXhXjXjXpXeXX.^ ! Q T ..1.p.BXBXBXBXBXBX",
"BXBXBXBXBXBXs.e.0.0.q.q.y.`.mXnXnXnXnXnXnXnXnXnXnXnXnXbXnXbXbXbXbXcXbXcXxXxXvXvXlXlXhXhXjXjXjXsXpXaXi.W ~ Q T I 1.t.BXBXBXBXBXBX",
"BXBXBXBXBX}.w.0.0.0.0.w.w.'.mXnXnXnXnXnXnXnXnXnXnXnXnXnXbXbXbXbXbXbXcXcXxXxXzXzXlXlXhXhXgXjXdXdXuXyXT.W ~ Q K .. .,.E.BXBXBXBXBX",
"BXBXBXBXBX`.e.8.7.0.w.w.a. XnXnXnXnXnXnXnXnXnXnXnXnXbXnXbXbXbXbXcXcXcXxXxXvXzXlXhXhXhXgXgXgXdXsXuXyXT.W ~ K K Y I  .;.BXBXBXBXBX",
"BXBXBXBXeXu.7.8.0.0.w.y.w. XnXnXnXnXnXnXnXnXnXnXnXbXbXnXbXbXcXcXcXcXcXxXvXzXlXlXlXhXhXjXgXdXdXuXyXyXT.W ~ L K Y I  .@.E.BXBXBXBX",
"BXBXBXhX Xe.8.8.0.0.w.y.a.'.nXnXnXnXnXnXnXnXnXnXnXnXbXbXbXbXbXcXcXcXxXxXzXzXlXkXhXhXjXgXgXpXuXuXyXiXi.W L L J J U b } >.^.BXBXBX",
"BXBXBXpXs.7.7.q.0.0.w.w.a.`.mXnXnXbXnXnXnXnXnXnXnXbXbXbXbXbXcXcXcXxXvXzXlXlXlXkXhXhXjXgXdXuXuXyXiXqXi.D L J J G U P c ;.~.BXBXBX",
"BXBXBXNXu.7.8.8.0.q.w.w.a.a.MXnXnXnXnXbXnXnXnXnXbXbXbXbXbXcXcXcXxXxXvXzXlXkXkXhXhXjXgXpXdXuXyXiXiX7X..L L J G G P b c @.E.BXBXBX",
"BXBXhX7Xe.8.8.8.0.q.w.w.y.a.6XnXbXbXnXnXnXbXbXbXbXbXbXbXcXxXcXxXvXvXzXlXkXhXhXjXjXgXdXuXpXyXiXtXiX}.Q K J J G P P b c } E.^.BXBX",
"BXBXjX].7.7.7.0.0.q.w.w.w.a.'.mXnXbXbXbXbXbXbXbXbXcXcXcXcXxXxXvXzXzXlXlXkXhXgXgXgXdXpXuXyXiXtXqX8Xp.K K J J G P m c c h >.!.BXBX",
"BXjXfXs.7.7.8.0.0.q.q.w.y.y.a.rXcXbXcXbXbXbXbXbXcXcXcXcXvXvXvXzXlXlXkXkXgXgXgXpXdXuXuXuXyXtXqXqX|...K Y G G P P m m c v %.~.!.BX",
"BXgXeXs.7.7.8.0.0.q.q.w.w.w.y.`.mXcXcXbXbXcXcXcXcXxXvXvXvXvXzXlXkXkXhXhXgXfXpXfXdXuXyXiXtXqX0X0Xt.K T G I H P m m c v v %.Q.^.BX",
"BXjXeXe.7.7.8.8.0.q.q.q.w.q.w.y..XcXcXcXcXcXcXcXxXxXvXzXlXlXkXkXkXgXgXgXgXdXgXpXpXyXiXtXqXqX8X_...Y Y G H P b b c v v v } (.!.BX",
"BXhX}.7.7.7.0.0.0.0.q.q.q.q.q.q.a..XcXcXxXxXvXvXzXvXlXlXkXkXhXhXhXgXgXpXpXpXpXyXyXtXtXqXqXqX{...Y Y I U P b b c c v v v } Y.!.BX",
"sXjX].2.7.7.8.0.0.0.q.0.0.q.0.0.0.a..XxXzXzXlXlXlXlXkXkXgXgXfXfXfXfXdXpXpXyXyXyXtXqXqXqX8X{.,.T Y I P b b b c v v z z v v >.!.!.",
"sXpXs.3.7.7.8.8.0.8.8.8.0.8.0.8.8.5.e. XhXzXkXkXkXhXhXgXgXfXfXdXpXuXuXpXyXyXtXtXqXqX8X0X)...Y I G P P b b c v v z v z v v $.~.^.",
"sXwXu.3.7.9.9.8.8.8.8.8.8.8.8.8.5.5.4.5.`.eXkXfXgXgXgXdXpXpXpXpXaXyXtXtXtXtXqXqX9X8X|.p...G I H P b b c c v l z z v v n } %.~.^.",
"sXeXi.3.7.9.9.8.8.5.8.5.5.5.4.4.4.4.4.6.o.r.].eXpXpXpXpXaXaXaXtXtXwXqXqX0X0X8X8X|.Y.1.G H P H m k k c c c l l z h z z z } } Q.^.",
"sX7X2.3.6.7.4.9.8.4.4.4.4.4.4.O.O.6.O.O.) ) ) 3.s.|.eXwXwXwXiXiXqXqX8X8X8X/.{.p. .H F F k g k k k h h h h l l l l z n n n @.E.!.",
"sX|.2.2.3.6.6.4.4.4.4.6.6.O.O.O.o.+.) ) ) ) ! ^ ~ Q ..i.p._.{.{.{.)._.p.<.U F F F i g g g g g s s d d h d h h h l l z z z @.(.^.",
"iX}.2.2.2.3.3.3.O.6.O.O.O.o.+.+.) ) ) ! ! ! W W E D A A E A S S S Z Z Z Z Z i i i i i i u u u f f f s s d d j h j l l n n } Y.^.",
"9X}.2.X.2.o.o.o.o.o.o.+.) ) / ) ) / ! ~ ~ E D D A S C S C B B V V 8 8 8 8 8 8 8 w w 0 0 u y y u u y f f f s s j d l l l n } Y.^.",
"9X_.X.X.X.X.+.o.) ) ) ) ) ! ! ! E E E E A A A C B V V N N N 2 2 7 1 1 , , 6 5 6 , < 5 4 4 0 0 0 0 0 y y y f a s s h h z n } >.5X",
"9X_...X.X.X.( ( ( ) ! ! ! ! ~ E E A A S B B N N N 7 2 2 1 2 1 1 , , > , > , > > , > > & 5 > 4 - 0 0 0 y y y y y f s h c v } Y.5X",
"9X).....X.K ( ( Q Q Q L E A A A A B B N N N 2 2 2 1 1 1 , , , , > , > > > > > > > & & & & & & * 4 - 4 0 : y y y f d h h b } Y.5X",
"BX).....T K T K K L R A A S C B N N N 2 2 2 2 1 1 , , < 3 3 3 3 3 * * < & * & & & & & & & & & & * 5 4 4 4 y 0 y u f d c n } E.BX",
"BXE... .Y J J R R S Z S B V N 7 N 2 N 2 1 3 3 3 3 q q q 9 t q 9 9 9 9 9 3 9 * * * & & & & & & & & 5 5 - 4 0 4 y u s h c n #.E.BX",
"BX{.1. .Y J J F S Z Z V V 7 7 1 1 1 3 w q q q q 9 9 9 : t t e e e e e ; ; 9 : * * * * * = & & & & & & 5 4 4 0 0 u f s v } #.E.BX",
"BXBXt. . .G F Z Z w V 7 6 6 6 1 , 3 q t q q t t p ` ' ] ] ] ] ] ] ] ] ] { ' ` r r ; = * = = & & & & - 5 5 4 0 y y s h v @.<.BXBX",
"BXBXt.,. .P H F i i 8 6 6 6 6 q q q q t ` ` ] f.d.f.z.N.c.C.n.c.l.g.d.d.V.&.[ [ { { ` r ; = = = = - - - 4 4 4 0 u s h n #.p.BXBX",
"BXBXBX<. .b k i i w 5 8 6 3 q q q e ` ] =.g.A.K.G.[.oX:X&X&X%X#X+XOXU.J.C.k.*.{ =.[ [ [ ' ` r ; = = - - - y y y f d l @.<.BXBXBX",
"BXBXBXBX@.} k s u 0 0 0 q q q t ` [ k.D.U.&X>X#X4XeXoX2X<X<X,X,X>X*X=X#X-XN./.$ d.g.d.=.&.{ { r ; ; = M 0 : y y f l n #.BXBXBXBX",
"BXBXBXBX<.} | s f y u q q 9 p ] k.L.%X,X<X3X3X[.0XmXW.,X<X<X,X>X>X*X*X&X#X|.mXW.*.A.c.b.d.V.&.[ { r ; M M M f a l n #.p.BXBXBXBX",
"BXBXBXBXBX#.} h h a a a M ` =.G.#X,X2X2X3X3X3XM.4XeXM.$X<X<X,X>X>X*X&X&X-XW.NX(.*.J.F.C.z.f.d.V.&.{ ` M p a a l n #.;.BXBXBXBXBX",
"BXBXBXBXBXBX$.} | h j j p d.OX;X<X3X2X3X3X2X3X:.(.(.@ :X<X<X,X>X;X;X&X&X@X:./.:.+ U.J.S.B.z.h.h.V.d.&.` j j j x #.;.BXBXBXBXBXBX",
"BXBXBXBXBXBXBXBX@.| x x -.[.,X2X<X2X2X2X2X2X3XV.$ $ O $X<X,X>X>X;X*X&X&XXX:.:.@ + U.K.G.B.x.z.h.h.j.d.-.x x %.$.BXBXBXBXBXBXBXBX",
"BXBXBXBXBXBXBXBXBX$.#.} I.;X,X<X2X2X<X2X2X2X<X# % % . $X,X,X>X>X;X;X*X=X@X# @ o + K.K.J.A.c.z.z.z.x.c.-.%.$.;.BXBXBXBXBXBXBXBXBX",
"BXBXBXBXBXBXBXBXBXBXBX$.XX,X,X,X<X<X2X2X2X2X<X# o o O $X,X,X>X>X*X*X*X:X@X@ o . + U.L.S.Z.x.z.x.x.c.A.I.;.BXBXBXBXBXBXBXBXBXBXBX",
"BXBXBXBXBXBXBXBXBXBXBXBX;X;X,X,X<X<X<X<X<X<X<X:.. . O $X,X>X>X*X*X&X%X%X@X@ X   @ K.J.C.B.x.x.x.c.B.D.H.BXBXBXBXBXBXBXBXBXBXBXBX",
"BXBXBXBXBXBXBXBXBXBXBXBXBX;X;X,X>X,X,X,X,X,X<XN.X X O &X>X*X*X*X=X=X#X#X+X+     *.K.S.C.x.z.z.x.N.B.F.BXBXBXBXBXBXBXBXBXBXBXBXBX",
"BXBXBXBXBXBXBXBXBXBXBXBXBX&X*X;X>X>X>X>X,X1X,XoXo X M.>X*X*X=X=X%X%X#X+X@X*.  . B.S.B.x.z.z.x.x.B.D.P.BXBXBXBXBXBXBXBXBXBXBXBXBX",
"BXBXBXBXBXBXBXBXBXBXBXBXBX&X&X*X*X;X>X;X>X;X;X;XoXM.:X$X&X=X=X%X#X+X+X@XOXL.h.N.Z.c.z.k.z.x.x.B.Z.D.[.BXBXBXBXBXBXBXBXBXBXBXBXBX",
"BXBXBXBXBXBXBXBXBXBXBXBXBXBX%X=X&X&X&X*X&X*X*X&X&X*X&X%X%X#X#X+X@XOXU.U.K.J.J.C.x.z.j.j.z.x.B.B.A.G.BXBXBXBXBXBXBXBXBXBXBXBXBXBX",
"BXBXBXBXBXBXBXBXBXBXBXBXBXBX#X#X%X%X=X%X=X=X=X%X%X#X#X#X+X+X@XOXU.U.K.J.S.Z.c.l.j.f.j.z.x.x.B.B.S.[.BXBXBXBXBXBXBXBXBXBXBXBXBXBX",
"BXBXBXBXBXBXBXBXBXBXBXBXBXBXBX-X-X#X#X#X#X#X-X+X+XU.+X@XU.U.U.U.K.J.S.Z.c.g.b.b.f.j.g.z.x.n.B.D.H.BXBXBXBXBXBXBXBXBXBXBXBXBXBXBX",
"BXBXBXBXBXBXBXBXBXBXBXBXBXBXBXoXoXoX@X+X@X@X@X@X+XU.U.U.U.U.J.F.A.C.v.l.b.f.f.g.g.j.l.x.m.n.B.H.[.BXBXBXBXBXBXBXBXBXBXBXBXBXBXBX",
"BXBXBXBXBXBXBXBXBXBXBXBXBXBXBXBXBXH.G.G.J.L.L.L.U.J.F.F.F.C.n.m.v.g.g.g.g.g.g.g.v.v.m.n.Z.D.G.BXBXBXBXBXBXBXBXBXBXBXBXBXBXBXBXBX",
"BXBXBXBXBXBXBXBXBXBXBXBXBXBXBXBXBXBXG.D.A.n.m.m.m.m.m.v.l.g.l.g.g.g.g.l.g.v.v.m.n.n.A.D.G.H.BXBXBXBXBXBXBXBXBXBXBXBXBXBXBXBXBXBX",
"BXBXBXBXBXBXBXBXBXBXBXBXBXBXBXBXBXBXBXBXBXG.G.A.B.m.m.m.m.m.m.m.m.m.m.C.C.C.A.S.G.H.H.BXBXBXBXBXBXBXBXBXBXBXBXBXBXBXBXBXBXBXBXBX",
"BXBXBXBXBXBXBXBXBXBXBXBXBXBXBXBXBXBXBXBXBXBXBXBXBXU.U.G.G.G.U.G.G.J.L.L.U.U.[.BXBXBXBXBXBXBXBXBXBXBXBXBXBXBXBXBXBXBXBXBXBXBXBXBX"
};
